User Type,Username,Date,Text
,diseltuc,2012-07-20T21:52Z,"Poor uppload speed, not the uppload hmmmm."
,diseltuc,2012-07-20T22:13Z,65 KB/S
,diseltuc,2012-07-21T09:43Z,"Format : Matroska 
Format version : Version 2 
File size : 2.79 GiB 
Duration : 1h 37mn 
Overall bit rate : 4 088 Kbps 
Encoded date : UTC 2012-05-03 12:58:12 
Writing application : mkvmerge v5.5.0 ('Healer') built on Apr 6 2012 21:43:24 
Writing library : libebml v1.2.3 + libmatroska v1.3.0 

Video 
ID : 1 
Format : AVC 
Format/Info : Advanced Video Codec 
Format profile : High@L3.1 
Format settings, CABAC : Yes 
Format settings, ReFrames : 4 frames 
Muxing mode : Header stripping 
Codec ID : V_MPEG4/ISO/AVC 
Duration : 1h 37mn 
Bit rate : 3 367 Kbps 
Width : 1 280 pixels 
Height : 544 pixels 
Display aspect ratio : 2.35:1 
Frame rate mode : Variable 
Frame rate : 23.976 fps 
Color space : YUV 
Chroma subsampling : 4:2:0 
Bit depth : 8 bits 
Scan type : Progressive 
Bits/(Pixel*Frame) : 0.202 
Stream size : 2.30 GiB (82%) 
Writing library : x264 core 120 
Encoding settings : cabac=1 / ref=3 / deblock=1:0:0 / analyse=0x3:0x113 / me=hex / subme=7 / psy=1 / psy_rd=1.00:0.00 / mixed_ref=1 / me_range=16 / chroma_me=1 / trellis=1 / 8x8dct=1 / cqm=0 / deadzone=21,11 / fast_pskip=1 / chroma_qp_offset=-2 / threads=9 / sliced_threads=0 / nr=0 / decimate=1 / interlaced=0 / bluray_compat=0 / constrained_intra=0 / bframes=3 / b_pyramid=2 / b_adapt=2 / b_bias=0 / direct=1 / weightb=1 / open_gop=0 / weightp=2 / keyint=240 / keyint_min=24 / scenecut=40 / intra_refresh=0 / rc_lookahead=50 / rc=crf / mbtree=1 / crf=17.0 / qcomp=0.60 / qpmin=3 / qpmax=69 / qpstep=4 / ip_ratio=1.40 / aq=1:1.00 
Language : English 
Color primaries : BT.709-5, BT.1361, IEC 61966-2-4, SMPTE RP177 
Transfer characteristics : BT.709-5, BT.1361 
Matrix coefficients : BT.709-5, BT.1361, IEC 61966-2-4 709, SMPTE RP177 

Audio 
ID : 2 
Format : AC-3 
Format/Info : Audio Coding 3 
Mode extension : CM (complete main) 
Muxing mode : Header stripping 
Codec ID : A_AC3 
Duration : 1h 37mn 
Bit rate mode : Constant 
Bit rate : 640 Kbps 
Channel(s) : 6 channels 
Channel positions : Front: L C R, Side: L R, LFE 
Sampling rate : 48.0 KHz 
Bit depth : 16 bits 
Compression mode : Lossy 
Stream size : 448 MiB (16%) 
Language : Swedish "
,diseltuc,2012-07-21T13:15Z,"Gick som t책get att f책 upp, trotts mina 1mbits uppload.

:)"
